<svg width="512" height="512" viewBox="0 0 512 512" fill="none" xmlns="http://www.w3.org/2000/svg">
<mask id="mask0_27_104" style="mask-type:alpha" maskUnits="userSpaceOnUse" x="0" y="0" width="512" height="512">
<circle cx="256" cy="256" r="256" fill="#D9D9D9"/>
</mask>
<g mask="url(#mask0_27_104)">
<rect width="512" height="512" fill="#9AFFA6"/>
<path d="M185.071 348.765C181.313 346.81 179.258 342.598 180.247 338.479C184.193 322.04 189.784 311.557 201.336 298.003C204.264 294.567 209.198 293.709 213.202 295.792C219.205 298.915 220.356 306.963 215.898 312.053C206.905 322.32 202.325 330.866 199.848 341.273C198.277 347.877 191.093 351.897 185.071 348.765Z" fill="#325234"/>
<path d="M222.665 199.935C182.061 248.381 204.006 308.689 204.006 308.689C204.006 308.689 266.542 320.501 307.165 272.023C347.769 223.577 325.823 163.268 325.823 163.268C325.823 163.268 263.287 151.457 222.665 199.935Z" fill="#49774E"/>
</g>
</svg>
