<svg width="43" height="42" viewBox="0 0 43 42" fill="none" xmlns="http://www.w3.org/2000/svg">
<ellipse cx="21.5" cy="21" rx="21.5" ry="21" fill="#38BDF8"/>
<path d="M14 21.4884H17.28C17.4898 21.4885 17.6942 21.5531 17.8644 21.673C18.0345 21.7929 18.1617 21.9621 18.228 22.1565L20.526 29.906C20.5607 30.0064 20.628 30.093 20.7176 30.1528C20.8071 30.2126 20.9142 30.2423 21.0226 30.2374C21.1309 30.2326 21.2348 30.1934 21.3184 30.1259C21.402 30.0583 21.4608 29.9661 21.486 29.863L24.82 14.4275C24.8716 14.2134 24.9956 14.0226 25.172 13.8859C25.3484 13.7493 25.5668 13.6748 25.792 13.6744H32" stroke="white" stroke-width="2" stroke-linecap="round" stroke-linejoin="round"/>
</svg>
